<?xml version="1.0" encoding="UTF-8" standalone="no"?>
<!DOCTYPE svg PUBLIC "-//W3C//DTD SVG 1.1//EN" "http://www.w3.org/Graphics/SVG/1.1/DTD/svg11.dtd">
<svg width="100%" height="100%" viewBox="0 0 142 142" version="1.1" xmlns="http://www.w3.org/2000/svg" xmlns:xlink="http://www.w3.org/1999/xlink" xml:space="preserve" xmlns:serif="http://www.serif.com/" style="fill-rule:evenodd;clip-rule:evenodd;stroke-linejoin:round;stroke-miterlimit:2;">
    <g transform="matrix(0.365289,0,0,0.365289,-11713.3,-2123.79)">
        <path d="M32453.8,5852.8L32453.8,6163.2C32453.8,6184.61 32436.4,6202 32415,6202L32104.6,6202C32083.2,6202 32065.8,6184.61 32065.8,6163.2L32065.8,5852.8C32065.8,5831.39 32083.2,5814 32104.6,5814L32415,5814C32436.4,5814 32453.8,5831.39 32453.8,5852.8ZM32262.8,5865.83C32262.8,5865.83 32251.3,5877.96 32241,5883.3C32230.6,5888.63 32221.4,5896.14 32219.1,5904.25C32216.8,5912.36 32224.4,5926.95 32224.4,5926.95L32226.1,5956.64C32226.1,5956.64 32222.9,5969.72 32222.6,5980.21C32222.4,5990.7 32224.3,6008.36 32231.4,6025.61C32238.4,6042.87 32233.1,6050.06 32233.1,6050.06L32249.7,6058.79C32249.7,6058.79 32256.7,6063.47 32258.4,6058.79C32260.2,6054.12 32260.4,6054.38 32272.4,6050.06C32284.4,6045.74 32304.4,5880.8 32300.3,5878.93C32296.3,5877.06 32293.3,5868.45 32293.3,5868.45C32293.3,5868.45 32282.2,5866.03 32279.4,5862.34C32276.5,5858.65 32262.8,5865.83 32262.8,5865.83ZM32251.4,6080.62C32251.4,6080.62 32238.8,6093.09 32233.1,6101.57C32227.4,6110.06 32226.6,6100.66 32227,6117.29C32227.4,6133.92 32222.3,6138.76 32227,6141.74C32231.7,6144.72 32228,6141.77 32233.1,6145.23C32238.2,6148.69 32251.4,6150.47 32251.4,6150.47L32254.9,6148.72C32254.9,6148.72 32272,6138.95 32275,6133.88C32278,6128.81 32272.1,6102.38 32272.4,6094.59C32272.7,6086.81 32261,6083 32251.4,6080.62Z"/>
    </g>
</svg>
