<?xml version="1.0" encoding="UTF-8" standalone="no"?>
<!DOCTYPE svg PUBLIC "-//W3C//DTD SVG 1.1//EN" "http://www.w3.org/Graphics/SVG/1.1/DTD/svg11.dtd">
<svg width="100%" height="100%" viewBox="0 0 142 142" version="1.1" xmlns="http://www.w3.org/2000/svg" xmlns:xlink="http://www.w3.org/1999/xlink" xml:space="preserve" xmlns:serif="http://www.serif.com/" style="fill-rule:evenodd;clip-rule:evenodd;stroke-linejoin:round;stroke-miterlimit:2;">
    <g transform="matrix(0.365289,0,0,0.365289,-11713.3,-2123.79)">
        <path d="M32453.8,5852.8L32453.8,6163.2C32453.8,6184.61 32436.4,6202 32415,6202L32104.6,6202C32083.2,6202 32065.8,6184.61 32065.8,6163.2L32065.8,5852.8C32065.8,5831.39 32083.2,5814 32104.6,5814L32415,5814C32436.4,5814 32453.8,5831.39 32453.8,5852.8ZM32318.9,5976.17L32319.9,5976.17C32322.6,5977.12 32321.8,5975.2 32321.8,5975.2C32321,5971.93 32319.7,5965.05 32322.8,5966.47C32325.8,5967.89 32326.8,5967 32326.7,5965.5C32326.6,5964 32326.1,5960.98 32329.6,5961.62C32333.1,5962.27 32334.4,5958.71 32334.4,5958.71C32333.9,5948.77 32343.7,5951.11 32346.1,5951.93C32348.4,5952.74 32347,5961.62 32347,5961.62C32345.5,5967.29 32354.8,5969.38 32354.8,5969.38C32364.6,5969.69 32361,5975.86 32361.6,5978.11C32362.2,5980.35 32359.3,5983.54 32354.8,5987.8C32350.3,5992.07 32352.8,6009.14 32352.8,6009.14C32349,6009.8 32347,6015.93 32347,6015.93C32332.8,6014.22 32327.6,6026.59 32327.6,6026.59L32325.7,6026.59C32321.1,6030.77 32325.1,6033.88 32326.7,6034.35C32328.3,6034.82 32326.7,6037.26 32326.7,6037.26C32319.9,6035.5 32321.2,6040.73 32318.9,6042.11C32316.6,6043.49 32315,6041.14 32315,6041.14C32311.9,6038.3 32309.2,6042.11 32309.2,6042.11C32300.8,6041.6 32297.5,6049.53 32296.6,6050.84C32295.7,6052.14 32294.3,6062.12 32286.9,6064.41C32279.5,6066.71 32277.3,6075.35 32271.4,6077.02C32265.5,6078.69 32262.7,6085.74 32262.7,6085.74C32248.2,6098.21 32237.5,6117.82 32236.5,6115.81C32235.5,6113.79 32240.2,6102.85 32243.3,6099.32C32246.3,6095.8 32241.3,6095.44 32241.3,6095.44C32217.2,6109.71 32215.2,6147.81 32215.2,6147.81C32215.2,6147.81 32211.1,6174.06 32239.4,6177.87C32267.7,6181.68 32281.9,6169.1 32285,6163.32C32288,6157.55 32313,6120.63 32321.8,6115.81C32330.7,6110.98 32340.9,6083.59 32349,6077.99C32357,6072.38 32382.9,6028.53 32382.9,6028.53C32382.9,6028.53 32378.2,6050.25 32375.2,6052.78C32372.1,6055.3 32373.2,6060.53 32373.2,6060.53C32384.1,6057.32 32408.1,6028.21 32404.2,5974.23C32400.4,5920.25 32347.1,5929.21 32332.5,5928.65C32317.8,5928.1 32313,5942.48 32310.2,5957.74C32307.4,5973.01 32318.9,5976.17 32318.9,5976.17ZM32361.6,6084.78C32361.6,6084.78 32336.9,6119.56 32333.5,6121.62C32330,6123.69 32335.3,6127.54 32339.3,6125.5C32343.2,6123.47 32352.1,6119.26 32351.9,6121.62C32351.7,6123.99 32343.6,6134.01 32338.3,6135.2C32333,6136.39 32310.4,6149.11 32309.2,6155.57C32308,6162.02 32308.2,6165.26 32308.2,6165.26L32340.2,6165.26C32340.2,6165.26 32340.8,6164.29 32341.7,6163.14C32342.1,6162.65 32344.5,6163.1 32345,6162.6C32346.1,6161.53 32347.6,6159.97 32349,6159.44C32352.8,6158.02 32367.5,6154.59 32372.2,6126.47C32372.2,6126.47 32382.4,6114.34 32374.2,6103.2C32374.2,6103.2 32370.7,6084.6 32361.6,6084.78ZM32201.6,6050.84C32201.6,6050.84 32201,6050.94 32201.6,6049.87C32202.2,6048.79 32200.7,6048.12 32198.7,6047.93C32196.7,6047.73 32196.9,6052.62 32192.8,6054.67C32188.8,6056.72 32165.2,6084.94 32157,6095.44C32148.8,6105.94 32150.8,6107.32 32147.3,6125.5C32143.7,6143.69 32160.3,6152.09 32176.4,6161.38C32192.4,6170.68 32201.5,6157.97 32201.6,6148.78C32201.7,6139.58 32210,6107.44 32234.5,6086.72C32259.1,6065.99 32273.1,6035.33 32274.3,6033.38C32275.5,6031.43 32275,6026.06 32278.2,6027.56C32281.4,6029.06 32282.1,6027.56 32282.1,6027.56C32286.3,6023.48 32285.3,6010.32 32282.1,6007.2C32278.8,6004.07 32283,5996.53 32283,5996.53C32285.8,5994.6 32284,5990.71 32284,5990.71C32291.6,5989.49 32289.9,5978.09 32289.8,5974.23C32289.7,5970.36 32286.4,5971.24 32284,5969.38C32281.6,5967.52 32284,5953.86 32284,5953.86C32289.9,5956.01 32289.8,5951.93 32289.8,5951.93C32297.4,5947.12 32290.8,5933.5 32290.8,5933.5C32292.4,5928.66 32287.9,5927.68 32287.9,5927.68C32285.3,5924.39 32286.9,5914.11 32286.9,5914.11C32290.5,5914.54 32289.8,5910.23 32289.8,5910.23C32294.2,5911.46 32296.3,5908.24 32295.6,5907.32C32294.9,5906.4 32295.9,5904.69 32299.5,5902.47C32303.2,5900.24 32302.5,5890.7 32300.5,5888.89C32298.5,5887.08 32301.3,5886.26 32301.5,5884.05C32301.6,5881.83 32311.8,5876.62 32316,5876.29C32320.2,5875.95 32321.9,5872.18 32326.7,5872.41C32331.4,5872.64 32329.8,5865.37 32332.5,5865.62C32335.1,5865.87 32336.6,5860.5 32337.3,5863.68C32338.1,5866.86 32344.1,5867.56 32344.1,5867.56C32344.7,5874.1 32335.7,5883.71 32342.8,5884.05C32349.9,5884.38 32346.1,5890.83 32346.1,5890.83C32346.1,5890.83 32342.3,5891.13 32342.2,5894.71C32342,5898.29 32347,5897.62 32347,5897.62C32359.5,5896.47 32367.2,5889.31 32367.4,5877.26C32367.5,5865.2 32355.6,5838.77 32324.7,5837.5C32293.9,5836.23 32274.3,5852.05 32274.3,5852.05C32227.6,5881.47 32232,5972.62 32231.6,5996.53C32231.3,6020.44 32212.5,6047.39 32208.4,6050.84C32204.2,6054.28 32202.2,6061.24 32199.6,6057.62C32198.3,6055.67 32201.6,6050.84 32201.6,6050.84ZM32158.9,5986.84C32158.9,5986.84 32133.3,5987.52 32140.5,6014.96C32140.5,6014.96 32147.6,6016.1 32148.2,6008.17C32148.2,6008.17 32160.6,6010.13 32165.7,6008.17C32170.8,6006.21 32164.2,6018.68 32166.7,6020.78C32169.1,6022.87 32171.4,6026.44 32167.6,6028.53C32163.9,6030.62 32143.7,6039.29 32143.4,6045.02C32143.1,6050.75 32130.5,6048.71 32128.8,6051.81C32127.2,6054.9 32122.8,6054.25 32124,6056.65C32125.2,6059.06 32129.8,6059.8 32126.9,6061.5C32124,6063.21 32112.7,6074.14 32115.3,6091.56C32117.8,6108.99 32124,6117.46 32135.6,6122.59C32135.6,6122.59 32154.6,6083.54 32158.9,6081.87C32158.9,6081.87 32160.5,6074.22 32148.2,6081.87C32148.2,6081.87 32144.7,6079.38 32150.2,6076.05L32151.1,6073.14L32156,6071.2C32156,6071.2 32155.5,6069.4 32160.8,6067.32C32166.2,6065.24 32212.1,6042.95 32205.5,6013.02C32198.9,5983.08 32178.4,5986.99 32167.6,5986.84C32156.9,5986.68 32158.9,5986.84 32158.9,5986.84Z"/>
    </g>
</svg>
