<?xml version="1.0" encoding="UTF-8" standalone="no"?>
<!DOCTYPE svg PUBLIC "-//W3C//DTD SVG 1.1//EN" "http://www.w3.org/Graphics/SVG/1.1/DTD/svg11.dtd">
<svg width="100%" height="100%" viewBox="0 0 142 142" version="1.1" xmlns="http://www.w3.org/2000/svg" xmlns:xlink="http://www.w3.org/1999/xlink" xml:space="preserve" xmlns:serif="http://www.serif.com/" style="fill-rule:evenodd;clip-rule:evenodd;stroke-linejoin:round;stroke-miterlimit:2;">
    <g transform="matrix(0.365289,0,0,0.365289,-11713.3,-2123.79)">
        <path d="M32453.8,5852.8L32453.8,6163.2C32453.8,6184.61 32436.4,6202 32415,6202L32104.6,6202C32083.2,6202 32065.8,6184.61 32065.8,6163.2L32065.8,5852.8C32065.8,5831.39 32083.2,5814 32104.6,5814L32415,5814C32436.4,5814 32453.8,5831.39 32453.8,5852.8ZM32157.1,5986.07C32163.1,5990.85 32175.5,6001.75 32175.5,6001.75C32175.5,6001.75 32177.4,6003.27 32176.1,6004.34C32174.8,6005.41 32184.3,6010.9 32187.1,6012.76C32190,6014.62 32192.2,6018.46 32193,6019.89C32193.7,6021.32 32193.2,6017.77 32208.5,6033.5C32223.9,6049.23 32242,6062.26 32241.6,6057.48C32241.1,6052.7 32204,6006.28 32204,6006.28L32209.8,6009.29C32209.8,6009.29 32212.4,6009.6 32215.6,6009.52C32218.9,6009.45 32221.2,6010.06 32226,6010.82C32230.9,6011.58 32230.8,6013.99 32232.5,6014.71C32234.2,6015.43 32235,6014.45 32237,6013.41C32239.1,6012.37 32240.1,6012.22 32241.6,6010.82C32243,6009.43 32243.5,6009.52 32243.5,6009.52C32243.5,6009.52 32243.4,6004.27 32242.9,6002.4C32242.3,6000.52 32234.4,5997.21 32234.4,5997.21C32234.4,5997.21 32224.9,5994.4 32218.2,5993.32C32211.5,5992.24 32209.4,5989.16 32207.2,5987.49C32205,5985.82 32198.1,5986.69 32193,5984.9C32187.8,5983.11 32172.2,5977.12 32172.2,5977.12L32170.9,5975.18C32170.9,5975.18 32165,5974.66 32161.9,5974.53C32160.6,5974.48 32159.7,5974.19 32159,5973.73C32164.4,5936.1 32168.1,5897.9 32166.3,5897.06C32162.7,5895.42 32160.2,5887.89 32160.2,5887.89C32160.2,5887.89 32150.5,5885.77 32148,5882.54C32145.5,5879.31 32133.4,5885.59 32133.4,5885.59C32133.4,5885.59 32123.4,5896.21 32114.3,5900.88C32105.3,5905.55 32097.2,5912.13 32095.2,5919.23C32093.2,5926.33 32099.8,5939.1 32099.8,5939.1L32101.3,5965.09C32101.3,5965.09 32098.5,5976.55 32098.3,5985.73C32098.1,5994.92 32099.7,6010.37 32105.9,6025.48C32112.1,6040.59 32107.4,6046.89 32107.4,6046.89L32122,6054.53C32122,6054.53 32128.1,6058.62 32129.6,6054.53C32131.1,6050.44 32131.3,6050.66 32141.8,6046.89C32146.4,6045.25 32152.2,6017.36 32157.1,5986.07ZM32123.5,6073.64C32123.5,6073.64 32112.4,6084.56 32107.4,6091.99C32102.5,6099.41 32101.7,6091.19 32102.1,6105.75C32102.5,6120.31 32098,6124.54 32102.1,6127.15C32106.2,6129.76 32103,6127.18 32107.4,6130.21C32111.9,6133.24 32123.5,6134.79 32123.5,6134.79L32126.6,6133.27C32126.6,6133.27 32141.5,6124.71 32144.1,6120.27C32146.7,6115.83 32141.6,6092.69 32141.8,6085.87C32142.1,6079.06 32131.8,6075.73 32123.5,6073.64ZM32296,5966.76C32296,5966.76 32307.5,5974.37 32311.5,5975.83C32315.6,5977.28 32322.7,5979.02 32327.1,5980.36C32331.5,5981.71 32337.3,5984.07 32340.1,5984.9C32342.8,5985.73 32343.5,5986.5 32345.9,5986.2C32348.2,5985.89 32353.6,5989.07 32355,5990.08C32356.4,5991.1 32354.1,5991.12 32345.9,5993.32C32337.7,5995.52 32333.3,5998.79 32331.6,5999.8C32330,6000.81 32329,6001.75 32329,6001.75L32325.2,6003.04C32325.2,6003.04 32323.1,6014.58 32334.2,6015.36C32334.2,6015.36 32336.8,6014.45 32341.4,6012.76C32345.9,6011.08 32356.2,6008.1 32359.5,6008.88C32362.8,6009.66 32370,6005.47 32371.2,6003.69C32372.3,6001.92 32379.6,6001.75 32379.6,6001.75C32379.6,6001.75 32397.1,5996.5 32399,5996.49C32401,5996.47 32411,5991.51 32415.2,5990.08C32419.5,5988.65 32419.9,5986.93 32424.3,5986.84C32428.7,5986.76 32438.9,5984.31 32441.1,5980.36C32441.1,5980.36 32411,5977.83 32406.8,5977.12C32402.6,5976.42 32393.8,5976.48 32393.8,5976.48C32393.8,5976.48 32392.5,5976.5 32389.3,5975.83C32386.1,5975.15 32378.9,5972.59 32378.9,5972.59L32375.7,5973.24C32375.7,5973.24 32380.1,5969.42 32367.3,5973.24C32367.3,5973.24 32361.3,5973.62 32359.5,5971.94C32357.7,5970.26 32356.6,5968.8 32351.7,5968.7C32346.8,5968.6 32334.6,5970.46 32329.7,5968.7C32324.8,5966.94 32322.1,5967.91 32321.3,5966.76C32320.4,5965.6 32296,5965.46 32296,5965.46L32296,5966.76ZM32262.3,6004.34C32257.3,6003.88 32257.1,6006.28 32257.1,6006.28C32257.1,6006.28 32255.2,6007.17 32252.6,6007.58C32250,6007.99 32248.6,6010.73 32247,6011.97C32245.4,6013.21 32240.3,6016 32240.3,6016C32240.3,6016 32235.4,6017.83 32233.1,6021.1C32230.8,6024.38 32234.4,6026.82 32237.7,6027.67C32240.9,6028.52 32239.3,6028.69 32240.3,6030.26C32241.2,6031.83 32243.1,6032.14 32246.1,6032.85C32249.1,6033.56 32262.4,6042.11 32266.2,6044.52C32270,6046.92 32270.8,6047.34 32274.6,6049.7C32278.5,6052.06 32278.1,6052.08 32279.1,6053.59C32280.2,6055.1 32284.6,6056.42 32286.9,6055.53C32289.3,6054.64 32289.5,6053.59 32289.5,6053.59L32296.6,6051.65C32296.6,6051.65 32298.2,6050.21 32301.8,6048.38C32305.4,6046.55 32305.7,6044.52 32305.7,6044.52C32305.7,6044.52 32310,6041.52 32311.5,6039.98C32313,6038.44 32322.7,6033.03 32325.2,6032.2C32327.6,6031.38 32333.3,6027.01 32337.5,6024.43C32341.6,6021.85 32339.4,6022.48 32339.4,6022.48C32339.4,6022.48 32329.2,6016.06 32325.2,6013.41C32321.1,6010.77 32323.9,6011.97 32323.9,6011.97C32323.9,6011.97 32317,6006.68 32314.8,6004.99C32312.6,6003.3 32311.5,6003.04 32311.5,6003.04L32308.3,6001.75C32308.3,6001.75 32309.6,6003.72 32308.3,6008.88C32307.1,6014.03 32303.8,6018.6 32303.8,6018.6L32314.1,6022.48C32314.1,6022.48 32309.9,6026.03 32307.7,6027.02C32305.4,6028.02 32303.8,6030.26 32303.8,6030.26C32303.8,6030.26 32300.8,6031.55 32296.6,6032.2C32292.5,6032.86 32288.9,6038.66 32286.3,6039.98C32283.6,6041.3 32284.3,6039.33 32284.3,6039.33C32284.3,6039.33 32272.3,6030.37 32268.1,6027.67C32263.9,6024.97 32260.4,6023.78 32260.4,6023.78C32260.4,6023.78 32258.3,6023.46 32257.1,6022.48C32255.9,6021.51 32261,6020.89 32262.3,6019.89C32263.6,6018.89 32266.2,6020.01 32266.2,6017.3C32266.1,6014.6 32262.3,6004.34 32262.3,6004.34ZM32277.9,5966.11C32274,5964.44 32275.1,5972.71 32273.3,5973.88C32271.5,5975.06 32270.9,5984.7 32269.4,5986.2C32267.9,5987.69 32266.1,5996.99 32264.9,5998.51C32263.7,6000.03 32263.6,6001.75 32263.6,6001.75C32264.8,6003.2 32270.1,6018.6 32270.1,6018.6C32270.1,6018.6 32270.7,6020.38 32271.4,6023.78C32272,6027.18 32283,6035.82 32285.6,6035.44C32288.2,6035.07 32295.3,6026.5 32299.2,6023.13C32303.1,6019.77 32300.8,6016.97 32305.1,6007.58C32309.4,5998.19 32290.3,5962.59 32288.2,5959.63C32286.1,5956.66 32285.6,5957.68 32285.6,5957.68C32284.5,5959.88 32286.3,5963.52 32286.3,5963.52C32287.5,5969.13 32287.6,5993.32 32287.6,5993.32L32290.2,5995.92L32288.2,5997.21C32289.1,6004.76 32283.9,6014.9 32283.7,6012.12C32283.4,6009.33 32281.1,5995.92 32281.1,5995.92C32281.1,5995.92 32280.5,5998.31 32279.8,5997.21C32279.1,5996.12 32279.1,5973.88 32279.1,5973.88L32277.9,5972.59L32277.9,5966.11ZM32236.4,5994.62C32236.4,5994.62 32237.8,5993.96 32237.7,5993.32C32237.5,5992.69 32239,5991.38 32239,5991.38C32242.7,5990.36 32256,5972.31 32261,5969.35C32266,5966.39 32271.7,5957.76 32273.3,5955.09C32275,5952.43 32276.6,5940.84 32276.6,5940.84L32279.1,5943.43C32279.1,5943.43 32278.5,5950.79 32284.3,5952.5C32290.1,5954.21 32292.1,5948.61 32292.1,5948.61L32296,5948.61L32295.3,5931.11L32293.4,5929.82L32295.3,5927.88C32295.3,5927.88 32295.8,5917.43 32296,5916.21C32296.1,5914.99 32293.4,5914.91 32293.4,5914.91L32295.3,5913.62C32295.3,5913.62 32296.5,5859.23 32292.8,5861.13C32289,5863.03 32288.1,5878.79 32286.3,5880.57C32284.5,5882.35 32275.3,5896.77 32275.3,5896.77C32275.3,5896.77 32276.3,5903.95 32274,5904.55C32271.6,5905.14 32272.1,5910.31 32270.7,5914.27C32269.4,5918.22 32254.5,5945.37 32254.5,5945.37L32250,5949.91C32250,5949.91 32252.6,5959.23 32250,5960.28C32247.3,5961.32 32237.7,5977.77 32237.7,5977.77L32236.4,5984.9C32236.4,5984.9 32233.7,5988.77 32234.4,5992.03C32235.1,5995.29 32236.4,5994.62 32236.4,5994.62ZM32342,6021.84L32342,6028.97L32340.1,6029.61L32340.1,6081.45C32339.7,6077.71 32335,6077.99 32334.9,6075.62C32334.8,6073.26 32331,6069.79 32331,6069.79L32328.4,6065.9L32325.8,6064.61L32323.9,6060.72C32323.9,6060.72 32322.6,6059.43 32319.3,6052.94C32316,6046.45 32308,6049.96 32306.4,6051.65C32304.7,6053.33 32300,6061.7 32306.4,6065.9C32312.7,6070.1 32320,6084.69 32320,6084.69C32320,6084.69 32318.7,6086.38 32321.3,6088.58C32323.8,6090.79 32330.6,6104.24 32333.6,6106.08C32336.5,6107.91 32343.2,6115.49 32345.9,6120.98C32348.6,6126.47 32360.2,6144.31 32364.7,6147.55C32369.2,6150.79 32373.1,6155.33 32373.1,6155.33L32371.8,6148.2C32371.8,6148.2 32370.3,6141.25 32368.6,6137.83C32366.8,6134.41 32366.6,6126.81 32366.6,6126.81L32366,6117.74L32364.7,6117.74C32365.9,6110.32 32358.2,6083.52 32357.6,6078.86C32356.9,6074.21 32354.1,6071.67 32353.7,6069.14C32353.2,6066.61 32353.7,6048.38 32353.7,6048.38C32353.7,6048.38 32349.3,6049.53 32351.1,6047.11C32352.8,6044.88 32349.6,6032.56 32345.9,6026.04C32345.3,6025.01 32345.4,6022.43 32344.9,6021.84C32343.5,6020.19 32342,6021.84 32342,6021.84ZM32263.6,6048.4C32263.6,6048.4 32258.6,6047.98 32255.8,6050.35C32253.1,6052.72 32238.4,6072.94 32237,6074.97C32235.6,6077.01 32226,6089.88 32226,6089.88L32225.4,6093.77C32225.4,6093.77 32213.1,6104.83 32213,6106.73C32213,6108.62 32212.4,6109.97 32212.4,6109.97L32207.9,6114.5C32207.9,6114.5 32199.8,6122.99 32199.4,6126.17C32199.1,6129.34 32196.8,6128.11 32196.8,6128.11L32193.6,6132.65C32193.6,6132.65 32183.6,6145.22 32184.3,6148.85C32185.1,6152.47 32196.8,6140.42 32196.8,6140.42C32196.8,6140.42 32243.6,6118.63 32251.9,6111.26C32251.9,6111.26 32256.8,6106.52 32259.7,6106.08C32262.6,6105.63 32264.6,6100.98 32268.8,6100.89C32272.9,6100.81 32276,6095.24 32277.9,6094.41C32279.7,6093.58 32305.4,6081.26 32309,6076.92C32312.5,6072.57 32301.8,6073.1 32299.2,6073.03C32296.6,6072.96 32275.3,6082.56 32268.8,6083.4C32262.2,6084.23 32248.9,6091.54 32248,6093.77C32247.2,6095.99 32245.1,6093.25 32242.9,6096.36C32242.9,6096.36 32240.9,6093.63 32243.5,6091.82C32246.1,6090.02 32256.1,6080.44 32257.1,6077.57L32258.4,6077.57C32258.4,6077.57 32257.2,6074.44 32258.4,6073.68C32259.6,6072.91 32264.3,6066.96 32266.8,6064.61C32269.3,6062.25 32269,6061.6 32267.5,6060.07C32265.9,6058.54 32269.1,6049.64 32263.6,6048.4Z"/>
    </g>
</svg>
