<?xml version="1.0" encoding="UTF-8" standalone="no"?>
<!DOCTYPE svg PUBLIC "-//W3C//DTD SVG 1.1//EN" "http://www.w3.org/Graphics/SVG/1.1/DTD/svg11.dtd">
<svg width="100%" height="100%" viewBox="0 0 298 289" version="1.1" xmlns="http://www.w3.org/2000/svg" xmlns:xlink="http://www.w3.org/1999/xlink" xml:space="preserve" xmlns:serif="http://www.serif.com/" style="fill-rule:evenodd;clip-rule:evenodd;stroke-linejoin:round;stroke-miterlimit:2;">
    <g transform="matrix(0.829598,0,0,0.829598,-26616.7,-4839.05)">
        <path d="M32271.3,5957.7C32271.3,5957.7 32284.8,5966.68 32289.6,5968.4C32294.4,5970.12 32302.8,5972.17 32308,5973.75C32313.2,5975.34 32320.1,5978.12 32323.3,5979.11C32326.5,5980.09 32327.4,5980.99 32330.2,5980.64C32332.9,5980.28 32339.2,5984.02 32340.9,5985.22C32342.5,5986.42 32339.8,5986.45 32330.2,5989.05C32320.5,5991.64 32315.3,5995.5 32313.3,5996.69C32311.4,5997.88 32310.3,5998.99 32310.3,5998.99L32305.7,6000.52C32305.7,6000.52 32303.2,6014.13 32316.4,6015.04C32316.4,6015.04 32319.5,6013.97 32324.8,6011.98C32330.1,6009.99 32342.3,6006.48 32346.2,6007.4C32350.2,6008.32 32358.6,6003.37 32360,6001.28C32361.3,5999.19 32369.9,5998.99 32369.9,5998.99C32369.9,5998.99 32390.6,5992.79 32392.9,5992.78C32395.2,5992.76 32407,5986.91 32412,5985.22C32417,5983.54 32417.5,5981.5 32422.7,5981.4C32427.9,5981.3 32439.9,5978.41 32442.6,5973.75C32442.6,5973.75 32407,5970.77 32402,5969.93C32397.1,5969.1 32386.7,5969.17 32386.7,5969.17C32386.7,5969.17 32385.1,5969.2 32381.4,5968.4C32377.6,5967.61 32369.2,5964.58 32369.2,5964.58L32365.3,5965.34C32365.3,5965.34 32370.5,5960.85 32355.4,5965.34C32355.4,5965.34 32348.3,5965.8 32346.2,5963.81C32344.1,5961.83 32342.8,5960.11 32337,5959.99C32331.2,5959.87 32316.8,5962.07 32311,5959.99C32305.2,5957.92 32302.1,5959.06 32301.1,5957.7C32300.1,5956.33 32271.3,5956.17 32271.3,5956.17L32271.3,5957.7ZM32325.6,6022.69L32325.6,6031.1L32323.3,6031.86L32323.3,6093.03C32322.9,6088.62 32317.3,6088.94 32317.2,6086.15C32317,6083.36 32312.6,6079.27 32312.6,6079.27L32309.5,6074.68L32306.5,6073.15L32304.2,6068.56C32304.2,6068.56 32302.7,6067.05 32298.8,6059.39C32294.9,6051.73 32285.5,6055.87 32283.5,6057.86C32281.5,6059.85 32276.1,6069.73 32283.5,6074.68C32291,6079.63 32299.6,6096.85 32299.6,6096.85C32299.6,6096.85 32298.1,6098.84 32301.1,6101.44C32304.1,6104.04 32312.2,6119.92 32315.6,6122.08C32319.1,6124.25 32327,6133.19 32330.2,6139.67C32333.4,6146.15 32347,6167.2 32352.3,6171.02C32357.7,6174.84 32362.3,6180.19 32362.3,6180.19L32360.7,6171.78C32360.7,6171.78 32359,6163.59 32356.9,6159.55C32354.9,6155.51 32354.6,6146.55 32354.6,6146.55L32353.9,6135.85L32352.3,6135.85C32353.7,6127.09 32344.7,6095.46 32343.9,6089.97C32343.2,6084.48 32339.9,6081.49 32339.3,6078.5C32338.8,6075.52 32339.3,6054 32339.3,6054C32339.3,6054 32334.1,6055.36 32336.3,6052.51C32338.3,6049.88 32334.6,6035.35 32330.2,6027.65C32329.5,6026.43 32329.6,6023.39 32329,6022.69C32327.4,6020.74 32325.6,6022.69 32325.6,6022.69ZM32249.9,5956.93C32245.3,5954.97 32246.7,5964.72 32244.5,5966.11C32242.4,5967.5 32241.7,5978.87 32239.9,5980.64C32238.1,5982.4 32236,5993.37 32234.6,5995.16C32233.2,5996.96 32233.1,5998.99 32233.1,5998.99C32234.5,6000.7 32240.7,6018.86 32240.7,6018.86C32240.7,6018.86 32241.4,6020.97 32242.2,6024.98C32243,6029 32256,6039.19 32259,6038.74C32262.1,6038.3 32270.5,6028.19 32275.1,6024.22C32279.7,6020.25 32276.9,6016.95 32282,6005.87C32287.1,5994.79 32264.6,5952.78 32262.1,5949.29C32259.7,5945.79 32259,5946.99 32259,5946.99C32257.7,5949.59 32259.8,5953.88 32259.8,5953.88C32261.3,5960.5 32261.3,5989.05 32261.3,5989.05L32264.4,5992.1L32262.1,5993.63C32263.2,6002.53 32257.1,6014.5 32256.8,6011.22C32256.5,6007.94 32253.7,5992.1 32253.7,5992.1C32253.7,5992.1 32253,5994.92 32252.2,5993.63C32251.4,5992.34 32251.4,5966.11 32251.4,5966.11L32249.9,5964.58L32249.9,5956.93ZM32231.5,6002.04C32225.6,6001.49 32225.4,6004.34 32225.4,6004.34C32225.4,6004.34 32223.1,6005.39 32220.1,6005.87C32217,6006.35 32215.3,6009.58 32213.5,6011.05C32211.6,6012.51 32205.5,6015.81 32205.5,6015.81C32205.5,6015.81 32199.8,6017.96 32197.1,6021.82C32194.4,6025.68 32198.7,6028.56 32202.5,6029.57C32206.3,6030.58 32204.4,6030.77 32205.5,6032.63C32206.7,6034.48 32208.9,6034.85 32212.4,6035.69C32215.9,6036.52 32231.6,6046.61 32236.1,6049.45C32240.6,6052.28 32241.5,6052.78 32246.1,6055.57C32250.6,6058.35 32250.1,6058.37 32251.4,6060.15C32252.7,6061.93 32257.8,6063.5 32260.6,6062.45C32263.3,6061.4 32263.6,6060.15 32263.6,6060.15L32272,6057.86C32272,6057.86 32273.9,6056.16 32278.2,6054C32282.4,6051.84 32282.8,6049.45 32282.8,6049.45C32282.8,6049.45 32287.9,6045.91 32289.6,6044.1C32291.4,6042.28 32302.8,6035.9 32305.7,6034.92C32308.6,6033.94 32315.3,6028.8 32320.2,6025.75C32325.1,6022.7 32322.5,6023.45 32322.5,6023.45C32322.5,6023.45 32310.5,6015.87 32305.7,6012.75C32300.9,6009.63 32304.2,6011.05 32304.2,6011.05C32304.2,6011.05 32296,6004.81 32293.5,6002.81C32290.9,6000.81 32289.6,6000.52 32289.6,6000.52L32285.8,5998.99C32285.8,5998.99 32287.3,6001.31 32285.8,6007.4C32284.3,6013.48 32280.5,6018.86 32280.5,6018.86L32292.7,6023.45C32292.7,6023.45 32287.7,6027.63 32285,6028.81C32282.3,6029.98 32280.5,6032.63 32280.5,6032.63C32280.5,6032.63 32276.9,6034.15 32272,6034.92C32267.2,6035.69 32262.9,6042.54 32259.8,6044.1C32256.7,6045.66 32257.5,6043.33 32257.5,6043.33C32257.5,6043.33 32243.4,6032.75 32238.4,6029.57C32233.4,6026.38 32229.2,6024.98 32229.2,6024.98C32229.2,6024.98 32226.8,6024.6 32225.4,6023.45C32224,6022.3 32230,6021.57 32231.5,6020.39C32233.1,6019.21 32236.2,6020.53 32236.1,6017.34C32236.1,6014.15 32231.5,6002.04 32231.5,6002.04ZM32200.9,5990.57C32200.9,5990.57 32202.6,5989.8 32202.5,5989.05C32202.3,5988.29 32204,5986.75 32204,5986.75C32208.4,5985.54 32224.1,5964.25 32230,5960.76C32235.9,5957.26 32242.6,5947.08 32244.5,5943.94C32246.5,5940.79 32248.3,5927.11 32248.3,5927.11L32251.4,5930.17C32251.4,5930.17 32250.7,5938.86 32257.5,5940.88C32264.4,5942.89 32266.7,5936.29 32266.7,5936.29L32271.3,5936.29L32270.5,5915.65L32268.2,5914.12L32270.5,5911.82C32270.5,5911.82 32271.1,5899.5 32271.3,5898.06C32271.5,5896.62 32268.2,5896.53 32268.2,5896.53L32270.5,5895C32270.5,5895 32271.9,5830.82 32267.5,5833.07C32263.1,5835.31 32262,5853.91 32259.8,5856.01C32257.7,5858.1 32246.8,5875.12 32246.8,5875.12C32246.8,5875.12 32248.1,5883.59 32245.3,5884.3C32242.5,5885 32243.1,5891.1 32241.5,5895.77C32239.8,5900.43 32222.4,5932.47 32222.4,5932.47L32217,5937.82C32217,5937.82 32220.1,5948.82 32217,5950.05C32213.9,5951.28 32202.5,5970.7 32202.5,5970.7L32200.9,5979.11C32200.9,5979.11 32197.8,5983.67 32198.6,5987.52C32199.5,5991.36 32200.9,5990.57 32200.9,5990.57ZM32233.1,6054.04C32233.1,6054.04 32227.1,6053.54 32223.9,6056.33C32220.6,6059.12 32203.4,6082.99 32201.7,6085.38C32200,6087.78 32188.7,6102.97 32188.7,6102.97L32187.9,6107.56C32187.9,6107.56 32173.5,6120.61 32173.4,6122.85C32173.3,6125.08 32172.7,6126.67 32172.7,6126.67L32167.3,6132.02C32167.3,6132.02 32157.8,6142.04 32157.4,6145.79C32156.9,6149.53 32154.3,6148.08 32154.3,6148.08L32150.5,6153.43C32150.5,6153.43 32138.6,6168.27 32139.5,6172.55C32140.5,6176.83 32154.3,6162.61 32154.3,6162.61C32154.3,6162.61 32209.4,6136.89 32219.3,6128.2C32219.3,6128.2 32225,6122.61 32228.5,6122.08C32231.9,6121.56 32234.3,6116.06 32239.2,6115.97C32244.1,6115.87 32247.7,6109.3 32249.9,6108.32C32252,6107.34 32282.4,6092.81 32286.6,6087.68C32290.8,6082.55 32278.2,6083.18 32275.1,6083.09C32272,6083.01 32246.9,6094.34 32239.2,6095.32C32231.4,6096.31 32215.7,6104.93 32214.7,6107.56C32213.7,6110.19 32211.2,6106.95 32208.6,6110.62C32208.6,6110.62 32206.3,6107.39 32209.4,6105.26C32212.4,6103.13 32224.3,6091.83 32225.4,6088.44L32226.9,6088.44C32226.9,6088.44 32225.5,6084.76 32226.9,6083.86C32228.4,6082.95 32233.9,6075.93 32236.9,6073.15C32239.8,6070.38 32239.5,6069.6 32237.6,6067.8C32235.8,6066 32239.5,6055.49 32233.1,6054.04ZM32198.6,5993.63C32198.6,5993.63 32187.4,5990.32 32179.5,5989.05C32171.6,5987.77 32169.2,5984.13 32166.5,5982.16C32163.9,5980.19 32155.8,5981.22 32149.7,5979.11C32143.7,5976.99 32125.2,5969.93 32125.2,5969.93L32123.7,5967.64C32123.7,5967.64 32116.7,5967.03 32113,5966.87C32109.3,5966.72 32108.5,5964.76 32105.4,5962.28C32102.3,5959.82 32091.6,5958.46 32091.6,5958.46L32088.5,5956.93L32084.7,5956.17C32084.7,5956.17 32083.5,5958.48 32084,5960.76C32084.4,5963.03 32087,5963.48 32088.5,5964.58C32090.1,5965.68 32093.3,5967.03 32094.7,5967.64C32096.1,5968.24 32100.1,5975.31 32104.6,5978.34C32109.1,5981.37 32129.1,5998.99 32129.1,5998.99C32129.1,5998.99 32131.4,6000.78 32129.8,6002.04C32128.3,6003.31 32139.5,6009.79 32142.8,6011.98C32146.2,6014.18 32148.9,6018.71 32149.7,6020.39C32150.6,6022.08 32150,6017.89 32168.1,6036.45C32186.2,6055.01 32207.6,6070.38 32207.1,6064.74C32206.5,6059.1 32162.7,6004.34 32162.7,6004.34L32169.6,6007.88C32169.6,6007.88 32172.6,6008.24 32176.5,6008.16C32180.3,6008.08 32183,6008.79 32188.7,6009.69C32194.4,6010.59 32194.4,6013.43 32196.4,6014.28C32198.4,6015.12 32199.3,6013.98 32201.7,6012.75C32204.1,6011.52 32205.4,6011.34 32207.1,6009.69C32208.8,6008.04 32209.4,6008.16 32209.4,6008.16C32209.4,6008.16 32209.3,6001.97 32208.6,5999.75C32207.9,5997.53 32198.6,5993.63 32198.6,5993.63Z" style="fill:white;"/>
    </g>
</svg>
