<?xml version="1.0" encoding="UTF-8" standalone="no"?>
<!DOCTYPE svg PUBLIC "-//W3C//DTD SVG 1.1//EN" "http://www.w3.org/Graphics/SVG/1.1/DTD/svg11.dtd">
<svg width="100%" height="100%" viewBox="0 0 256 238" version="1.1" xmlns="http://www.w3.org/2000/svg" xmlns:xlink="http://www.w3.org/1999/xlink" xml:space="preserve" xmlns:serif="http://www.serif.com/" style="fill-rule:evenodd;clip-rule:evenodd;stroke-linejoin:round;stroke-miterlimit:2;">
    <g transform="matrix(0.773663,0,0,0.773663,-24837.6,-4529.34)">
        <path d="M32148,5865.83C32148,5865.83 32136.5,5877.96 32126.2,5883.3C32115.9,5888.63 32106.7,5896.14 32104.4,5904.25C32102,5912.36 32109.6,5926.95 32109.6,5926.95L32111.3,5956.64C32111.3,5956.64 32108.1,5969.72 32107.8,5980.21C32107.6,5990.7 32109.5,6008.36 32116.6,6025.61C32123.6,6042.87 32118.3,6050.06 32118.3,6050.06L32134.9,6058.79C32134.9,6058.79 32141.9,6063.47 32143.6,6058.79C32145.4,6054.12 32145.6,6054.38 32157.6,6050.06C32169.6,6045.74 32189.6,5880.8 32185.6,5878.93C32181.5,5877.06 32178.6,5868.45 32178.6,5868.45C32178.6,5868.45 32167.5,5866.03 32164.6,5862.34C32161.7,5858.65 32148,5865.83 32148,5865.83ZM32136.7,6080.62C32136.7,6080.62 32124,6093.09 32118.3,6101.57C32112.6,6110.06 32111.8,6100.66 32112.2,6117.29C32112.6,6133.92 32107.5,6138.76 32112.2,6141.74C32116.9,6144.72 32113.2,6141.77 32118.3,6145.23C32123.4,6148.69 32136.7,6150.47 32136.7,6150.47L32140.2,6148.72C32140.2,6148.72 32157.3,6138.95 32160.2,6133.88C32163.2,6128.81 32157.3,6102.38 32157.6,6094.59C32157.9,6086.81 32146.2,6083 32136.7,6080.62ZM32213.5,5988.94C32213.5,5988.94 32190.4,5989.56 32196.9,6014.26C32196.9,6014.26 32203.4,6015.3 32203.9,6008.15C32203.9,6008.15 32215,6009.91 32219.7,6008.15C32224.3,6006.39 32218.3,6017.61 32220.5,6019.5C32222.7,6021.39 32224.8,6024.6 32221.4,6026.49C32218,6028.37 32199.8,6036.17 32199.6,6041.33C32199.3,6046.49 32187.9,6044.65 32186.5,6047.44C32185,6050.23 32181,6049.64 32182.1,6051.81C32183.2,6053.97 32187.4,6054.64 32184.7,6056.17C32182.1,6057.71 32172,6067.55 32174.2,6083.24C32176.5,6098.93 32182.1,6106.56 32192.6,6111.18C32192.6,6111.18 32209.7,6076.02 32213.5,6074.51C32213.5,6074.51 32215,6067.62 32203.9,6074.51C32203.9,6074.51 32200.8,6072.27 32205.7,6069.27L32206.6,6066.65L32210.9,6064.9C32210.9,6064.9 32210.5,6063.29 32215.3,6061.41C32220.1,6059.54 32261.4,6039.47 32255.4,6012.52C32249.5,5985.56 32231.1,5989.08 32221.4,5988.94C32211.7,5988.81 32213.5,5988.94 32213.5,5988.94ZM32396,6077.13C32396,6077.13 32373.8,6108.45 32370.7,6110.31C32367.6,6112.17 32372.4,6115.63 32375.9,6113.8C32379.5,6111.97 32387.5,6108.18 32387.3,6110.31C32387.1,6112.43 32379.8,6121.46 32375.1,6122.53C32370.3,6123.6 32350,6135.06 32348.9,6140.87C32347.8,6146.68 32348,6149.6 32348,6149.6L32376.8,6149.6C32376.8,6149.6 32377.3,6148.72 32378.1,6147.68C32378.5,6147.24 32380.6,6147.65 32381.1,6147.2C32382.1,6146.24 32383.4,6144.83 32384.7,6144.36C32388.1,6143.08 32401.3,6139.98 32405.6,6114.67C32405.6,6114.67 32414.8,6103.74 32407.4,6093.72C32407.4,6093.72 32404.2,6076.97 32396,6077.13ZM32357.6,5979.34L32358.5,5979.34C32360.9,5980.2 32360.2,5978.47 32360.2,5978.47C32359.5,5975.53 32358.4,5969.33 32361.1,5970.61C32363.8,5971.89 32364.7,5971.09 32364.6,5969.73C32364.5,5968.38 32364,5965.66 32367.2,5966.24C32370.4,5966.82 32371.6,5963.62 32371.6,5963.62C32371.1,5954.67 32379.9,5956.78 32382,5957.51C32384.2,5958.24 32382.9,5966.24 32382.9,5966.24C32381.5,5971.35 32389.9,5973.23 32389.9,5973.23C32398.7,5973.51 32395.5,5979.06 32396,5981.09C32396.6,5983.11 32394,5985.98 32389.9,5989.82C32385.8,5993.65 32388.2,6009.03 32388.2,6009.03C32384.7,6009.62 32382.9,6015.14 32382.9,6015.14C32370.2,6013.6 32365.5,6024.74 32365.5,6024.74L32363.7,6024.74C32359.6,6028.5 32363.1,6031.3 32364.6,6031.73C32366,6032.15 32364.6,6034.35 32364.6,6034.35C32358.5,6032.76 32359.7,6037.47 32357.6,6038.71C32355.5,6039.95 32354.1,6037.84 32354.1,6037.84C32351.3,6035.28 32348.9,6038.71 32348.9,6038.71C32341.3,6038.25 32338.4,6045.4 32337.5,6046.57C32336.7,6047.74 32335.5,6056.73 32328.8,6058.79C32322.1,6060.86 32320.1,6068.64 32314.8,6070.14C32309.5,6071.65 32307,6078 32307,6078C32294,6089.23 32284.3,6106.88 32283.4,6105.07C32282.5,6103.26 32286.8,6093.4 32289.5,6090.23C32292.2,6087.05 32287.8,6086.73 32287.8,6086.73C32266,6099.58 32264.2,6133.88 32264.2,6133.88C32264.2,6133.88 32260.5,6157.52 32286,6160.95C32311.5,6164.38 32324.3,6153.05 32327,6147.85C32329.8,6142.65 32352.3,6109.41 32360.2,6105.07C32368.2,6100.72 32377.4,6076.06 32384.7,6071.02C32391.9,6065.97 32415.2,6026.49 32415.2,6026.49C32415.2,6026.49 32411,6046.04 32408.2,6048.32C32405.5,6050.59 32406.5,6055.3 32406.5,6055.3C32416.3,6052.4 32437.9,6026.2 32434.4,5977.59C32431,5928.99 32383,5937.06 32369.8,5936.56C32356.6,5936.06 32352.3,5949 32349.7,5962.75C32347.2,5976.49 32357.6,5979.34 32357.6,5979.34ZM32252,6046.57C32252,6046.57 32251.4,6046.66 32252,6045.7C32252.5,6044.73 32251.1,6044.13 32249.3,6043.95C32247.5,6043.77 32247.8,6048.17 32244.1,6050.02C32240.4,6051.87 32219.2,6077.28 32211.8,6086.73C32204.4,6096.19 32206.3,6097.43 32203.1,6113.8C32199.9,6130.17 32214.8,6137.74 32229.3,6146.1C32243.7,6154.47 32251.9,6143.03 32252,6134.75C32252,6126.47 32259.6,6097.54 32281.6,6078.87C32303.7,6060.21 32316.4,6032.61 32317.4,6030.85C32318.5,6029.1 32318,6024.26 32320.9,6025.61C32323.8,6026.96 32324.4,6025.61 32324.4,6025.61C32328.2,6021.94 32327.3,6010.09 32324.4,6007.28C32321.5,6004.46 32325.3,5997.67 32325.3,5997.67C32327.8,5995.94 32326.2,5992.44 32326.2,5992.44C32333,5991.33 32331.5,5981.07 32331.4,5977.59C32331.3,5974.11 32328.3,5974.9 32326.2,5973.23C32324,5971.55 32326.2,5959.26 32326.2,5959.26C32331.4,5961.19 32331.4,5957.51 32331.4,5957.51C32338.2,5953.18 32332.3,5940.92 32332.3,5940.92C32333.7,5936.56 32329.7,5935.68 32329.7,5935.68C32327.4,5932.72 32328.8,5923.46 32328.8,5923.46C32332,5923.85 32331.4,5919.97 32331.4,5919.97C32335.3,5921.08 32337.3,5918.18 32336.6,5917.35C32336,5916.52 32336.8,5914.98 32340.1,5912.98C32343.4,5910.98 32342.8,5902.39 32341,5900.76C32339.2,5899.13 32341.8,5898.39 32341.9,5896.39C32342,5894.4 32351.2,5889.71 32355,5889.41C32358.8,5889.11 32360.3,5885.71 32364.6,5885.91C32368.9,5886.12 32367.4,5879.58 32369.8,5879.8C32372.2,5880.03 32373.5,5875.2 32374.2,5878.06C32374.9,5880.92 32380.3,5881.55 32380.3,5881.55C32380.8,5887.43 32372.7,5896.09 32379.1,5896.39C32385.5,5896.69 32382,5902.5 32382,5902.5C32382,5902.5 32378.7,5902.77 32378.6,5906C32378.4,5909.22 32382.9,5908.62 32382.9,5908.62C32394.1,5907.58 32401.1,5901.14 32401.3,5890.28C32401.4,5879.43 32390.6,5855.63 32362.8,5854.48C32335.1,5853.34 32317.4,5867.58 32317.4,5867.58C32275.4,5894.07 32279.4,5976.15 32279,5997.67C32278.7,6019.2 32261.8,6043.47 32258.1,6046.57C32254.3,6049.67 32252.5,6055.94 32250.2,6052.68C32249,6050.92 32252,6046.57 32252,6046.57Z" style="fill:white;"/>
    </g>
</svg>
